<?xml version="1.0" standalone="no"?>
<!DOCTYPE svg PUBLIC "-//W3C//DTD SVG 20010904//EN"
 "http://www.w3.org/TR/2001/REC-SVG-20010904/DTD/svg10.dtd">
<svg version="1.0" xmlns="http://www.w3.org/2000/svg"
 width="16.000000pt" height="16.000000pt" viewBox="0 0 16.000000 16.000000"
 preserveAspectRatio="xMidYMid meet">
<metadata>
Created by potrace 1.11, written by Peter Selinger 2001-2013
</metadata>
<g transform="translate(0.000000,16.000000) scale(0.005333,-0.005333)"
fill="#000000" stroke="none">
<path d="M815 2068 c-2 -7 -54 -296 -115 -641 -89 -500 -109 -631 -100 -642
10 -12 41 -15 141 -15 125 0 129 1 134 23 2 12 54 298 115 636 81 454 107 618
99 632 -9 17 -23 19 -140 19 -95 0 -131 -3 -134 -12z"/>
<path d="M1525 2068 c-2 -7 -54 -296 -115 -641 -89 -498 -109 -631 -100 -643
10 -11 41 -14 141 -14 l128 0 6 33 c3 17 23 126 44 242 l37 210 133 3 132 3
30 -30 30 -30 -3 -203 c-2 -112 1 -209 5 -215 11 -17 253 -18 263 -2 10 17 6
460 -5 497 -6 19 -20 50 -32 70 -14 24 -17 38 -9 40 57 19 148 132 170 212 46
162 0 349 -105 422 -68 48 -146 58 -463 58 -217 0 -284 -3 -287 -12z m561
-291 c33 -39 34 -129 1 -177 -42 -64 -75 -75 -233 -78 l-140 -4 25 147 26 146
148 -3 149 -3 24 -28z"/>
<path d="M2460 1223 c-18 -104 -43 -240 -55 -303 -19 -97 -21 -117 -9 -129 7
-8 16 -12 19 -9 3 3 8 45 10 94 3 48 7 95 9 103 3 9 8 36 11 61 3 25 12 72 20
105 15 64 21 103 31 203 12 116 -3 63 -36 -125z"/>
<path d="M1050 821 c0 -11 4 -22 9 -25 4 -3 6 6 3 19 -5 30 -12 33 -12 6z"/>
</g>
</svg>
